<svg width="10" height="25" viewBox="0 0 10 25" fill="none" xmlns="http://www.w3.org/2000/svg">
<g clip-path="url(#clip0_131_1788)">
<path d="M22.31 13.375C21.8767 13.375 21.5683 13.2 21.385 12.85C21.2683 12.65 21.1267 12.35 20.96 11.95L20.835 11.675C20.635 11.275 20.46 10.9917 20.31 10.825C19.9933 10.4917 19.6433 10.3459 19.26 10.3875C18.8767 10.4292 18.5683 10.6334 18.335 11C18.185 11.2334 18.06 11.5 17.96 11.8C17.8933 12 17.8183 12.2834 17.735 12.65L17.685 12.85C17.5183 13.6167 17.36 14.175 17.21 14.525V14.55C17.1433 14.6834 17.0683 14.75 16.985 14.75C16.9017 14.75 16.8433 14.6834 16.81 14.55V14.5C16.6433 13.9334 16.4933 13.05 16.36 11.85L16.235 10.85C16.1517 10.0834 16.0767 9.51669 16.01 9.15002C15.8933 8.51669 15.7433 7.95836 15.56 7.47502C15.4433 7.14169 15.285 6.85836 15.085 6.62502C14.685 6.07502 14.2183 5.95002 13.685 6.25002L13.61 6.27502C13.5767 6.30836 13.5267 6.34169 13.46 6.37502C13.46 6.39169 13.46 6.40002 13.46 6.40002L13.36 6.47502C13.26 6.57502 13.1933 6.65002 13.16 6.70002C13.01 6.91669 12.9017 7.11669 12.835 7.30002C12.6683 7.71669 12.5517 8.10002 12.485 8.45002C12.3517 9.03336 12.2433 9.70002 12.16 10.45C12.11 10.8834 12.0517 11.5459 11.985 12.4375C11.9183 13.3292 11.86 14 11.81 14.45C11.7267 15.4834 11.6017 16.325 11.435 16.975V17.025C11.4017 17.1417 11.3475 17.2 11.2725 17.2C11.1975 17.2 11.1433 17.1417 11.11 17.025V17C10.9433 16.5834 10.8183 16.1417 10.735 15.675C10.6517 15.3417 10.5517 14.825 10.435 14.125C10.2683 13.1584 10.1183 12.4417 9.98501 11.975C9.88501 11.6084 9.80168 11.325 9.73501 11.125C9.61834 10.8417 9.47668 10.5917 9.31001 10.375C9.06001 10.0584 8.76001 9.90002 8.41001 9.90002C8.06001 9.90002 7.75168 10.05 7.48501 10.35C7.33501 10.5 7.20168 10.7084 7.08501 10.975C6.95168 11.3084 6.83501 11.6834 6.73501 12.1C6.66834 12.3667 6.58501 12.75 6.48501 13.25L6.36001 13.925C6.22668 14.6917 6.09334 15.2584 5.96001 15.625C5.92668 15.7417 5.86834 15.8042 5.78501 15.8125C5.70168 15.8209 5.64334 15.775 5.61001 15.675L5.38501 15.075L5.31001 14.825C5.17668 14.425 5.06834 14.125 4.98501 13.925C4.85168 13.6084 4.71001 13.3334 4.56001 13.1C4.14334 12.5 3.56001 12.2 2.81001 12.2H0.28501C0.168343 12.2 0.0766764 12.2167 0.0100098 12.25V13.45C0.0933431 13.4834 0.21001 13.5 0.36001 13.5C1.39334 13.5 2.16834 13.4917 2.68501 13.475C3.06834 13.475 3.36834 13.6584 3.58501 14.025C3.70168 14.2417 3.84334 14.575 4.01001 15.025L4.13501 15.425C4.31834 15.9917 4.51001 16.4125 4.71001 16.6875C4.91001 16.9625 5.14751 17.1459 5.42251 17.2375C5.69751 17.3292 5.97251 17.3209 6.24751 17.2125C6.52251 17.1042 6.74751 16.9 6.92251 16.6C7.09751 16.3 7.24334 15.9417 7.36001 15.525C7.42668 15.275 7.51001 14.9 7.61001 14.4L7.76001 13.575C7.89334 12.8417 8.01001 12.2917 8.11001 11.925L8.23501 11.6C8.28501 11.5 8.33918 11.4542 8.39751 11.4625C8.45584 11.4709 8.50168 11.525 8.53501 11.625V11.65C8.65168 11.9667 8.77668 12.4417 8.91001 13.075L9.11001 14.125C9.32668 15.375 9.52668 16.3 9.71001 16.9C9.81001 17.2334 9.89334 17.4834 9.96001 17.65C10.26 18.3334 10.6767 18.75 11.21 18.9H11.46C11.71 18.8334 11.9267 18.7 12.11 18.5C12.2433 18.35 12.3683 18.1334 12.485 17.85C12.635 17.4667 12.76 17.025 12.86 16.525C12.91 16.225 12.9767 15.775 13.06 15.175L13.085 14.925C13.135 14.4584 13.1933 13.7584 13.26 12.825C13.3933 11.275 13.5183 10.1167 13.635 9.35002C13.7183 8.81669 13.8267 8.35002 13.96 7.95002V7.92502C13.9933 7.77502 14.0517 7.69586 14.135 7.68752C14.2183 7.67919 14.285 7.74169 14.335 7.87502L14.36 7.95002C14.5267 8.36669 14.6767 9.01669 14.81 9.90002L14.86 10.125C14.91 10.4417 14.9683 10.925 15.035 11.575C15.1683 12.8584 15.31 13.8167 15.46 14.45C15.5433 14.8667 15.6767 15.2417 15.86 15.575C16.0933 16.025 16.4267 16.2584 16.86 16.275C17.2267 16.2917 17.5517 16.1584 17.835 15.875C18.2017 15.5084 18.4683 15 18.635 14.35C18.7183 14.0667 18.835 13.65 18.985 13.1L19.21 12.175C19.2267 12.0917 19.2475 12.0292 19.2725 11.9875C19.2975 11.9459 19.3475 11.9209 19.4225 11.9125C19.4975 11.9042 19.56 11.975 19.61 12.125L19.635 12.2C19.9017 12.8334 20.1267 13.2917 20.31 13.575C20.7767 14.325 21.4267 14.6917 22.26 14.675C22.7267 14.6584 23.41 14.65 24.31 14.65H25.01V13.4C23.81 13.3667 22.91 13.3584 22.31 13.375Z" fill="#FF4500"/>
</g>
<defs>
<clipPath id="clip0_131_1788">
<rect width="10" height="25" fill="white"/>
</clipPath>
</defs>
</svg>
