<svg width="20" height="19" viewBox="0 0 20 19" fill="none" xmlns="http://www.w3.org/2000/svg">
<path d="M0.5 13.3974C0.5 16.4908 3.00922 19 6.10256 19H13.8974C16.9908 19 19.5 16.4908 19.5 13.3974V5.60256C19.5 2.50922 16.9908 0 13.8974 0H6.10256C3.00922 0 0.5 2.50922 0.5 5.60256V13.3974ZM15.1154 3.41026C15.7976 3.41026 16.3333 3.94596 16.3333 4.62821C16.3333 5.31045 15.7976 5.84615 15.1154 5.84615C14.4331 5.84615 13.8974 5.31045 13.8974 4.62821C13.8974 3.94596 14.4331 3.41026 15.1154 3.41026ZM10 4.87179C12.5577 4.87179 14.6282 6.94231 14.6282 9.5C14.6282 12.0577 12.5577 14.1282 10 14.1282C7.44231 14.1282 5.37179 12.0577 5.37179 9.5C5.37179 6.94231 7.44231 4.87179 10 4.87179Z" fill="#333333"/>
<path d="M13.1668 9.49998C13.1668 11.2489 11.7491 12.6666 10.0002 12.6666C8.25126 12.6666 6.8335 11.2489 6.8335 9.49998C6.8335 7.75108 8.25126 6.33331 10.0002 6.33331C11.7491 6.33331 13.1668 7.75108 13.1668 9.49998Z" fill="#333333"/>
</svg>
