<svg width="16" height="19" viewBox="0 0 16 19" fill="none" xmlns="http://www.w3.org/2000/svg">
<g clip-path="url(#clip0_169_446)">
<path d="M13.6099 4.10782C12.6216 3.47567 11.9086 2.46387 11.6861 1.28513C11.638 1.03052 11.6113 0.768229 11.6113 0.5H8.45727L8.45193 12.9018C8.39924 14.2908 7.23409 15.4052 5.80585 15.4052C5.36193 15.4052 4.944 15.2966 4.5759 15.1063C3.73185 14.6707 3.15408 13.8028 3.15408 12.8043C3.15408 11.3699 4.3438 10.2027 5.8055 10.2027C6.07854 10.2027 6.34019 10.2471 6.58761 10.3228V7.16382C6.33129 7.12924 6.07106 7.10829 5.8055 7.10829C2.60443 7.10829 0 9.6631 0 12.8043C0 14.7312 0.98111 16.4366 2.47876 17.4676C3.42143 18.1176 4.56878 18.5 5.80585 18.5C9.00727 18.5 11.6113 15.9448 11.6113 12.8043V6.51525C12.8484 7.3863 14.3642 7.8997 16 7.8997V4.80494C15.1189 4.80494 14.2984 4.54824 13.6099 4.10782Z" fill="#333333"/>
</g>
<defs>
<clipPath id="clip0_169_446">
<rect width="16" height="18" fill="white" transform="translate(0 0.5)"/>
</clipPath>
</defs>
</svg>
