<svg width="20" height="14" viewBox="0 0 20 14" fill="none" xmlns="http://www.w3.org/2000/svg">
<path d="M19.1709 2.14453C19.5928 3.62109 19.5928 6.78516 19.5928 6.78516C19.5928 6.78516 19.5928 9.91406 19.1709 11.4258C18.96 12.2695 18.292 12.9023 17.4834 13.1133C15.9717 13.5 9.99512 13.5 9.99512 13.5C9.99512 13.5 3.9834 13.5 2.47168 13.1133C1.66309 12.9023 0.995117 12.2695 0.78418 11.4258C0.362305 9.91406 0.362305 6.78516 0.362305 6.78516C0.362305 6.78516 0.362305 3.62109 0.78418 2.14453C0.995117 1.30078 1.66309 0.632812 2.47168 0.421875C3.9834 0 9.99512 0 9.99512 0C9.99512 0 15.9717 0 17.4834 0.421875C18.292 0.632812 18.96 1.30078 19.1709 2.14453ZM8.02637 9.63281L13.0186 6.78516L8.02637 3.9375V9.63281Z" fill="#333333"/>
</svg>
